<?xml version="1.0" standalone="no"?>
<!DOCTYPE svg PUBLIC "-//W3C//DTD SVG 20010904//EN"
 "http://www.w3.org/TR/2001/REC-SVG-20010904/DTD/svg10.dtd">
<svg version="1.0" xmlns="http://www.w3.org/2000/svg"
 width="600.000000pt" height="600.000000pt" viewBox="0 0 600.000000 600.000000"
 preserveAspectRatio="xMidYMid meet">
<metadata>
Created by potrace 1.11, written by Peter Selinger 2001-2013
</metadata>
<g transform="translate(0.000000,600.000000) scale(0.100000,-0.100000)"
fill="#000000" stroke="none">
<path d="M2927 5924 c-1 -1 -38 -5 -82 -9 -44 -3 -91 -8 -105 -10 -14 -3 -43
-7 -65 -10 -97 -14 -259 -50 -380 -85 -621 -183 -1174 -585 -1528 -1115 -37
-55 -71 -105 -76 -111 -15 -18 -128 -228 -156 -290 -68 -146 -150 -385 -181
-524 -4 -19 -8 -37 -9 -40 -17 -70 -30 -145 -41 -225 -3 -27 -8 -52 -9 -55 -9
-15 -19 -212 -19 -360 -1 -192 7 -281 40 -475 60 -356 209 -732 410 -1040 352
-539 812 -901 1449 -1138 49 -18 279 -84 320 -91 116 -22 208 -37 251 -42 27
-3 60 -7 74 -10 14 -3 135 -7 270 -9 l245 -4 5 -88 5 -87 513 -1 c511 -1 512
-1 512 19 1 12 0 118 0 237 -1 249 -12 220 120 293 47 25 142 84 213 131 96
64 127 80 128 67 0 -9 2 -174 3 -367 2 -192 4 -357 5 -365 1 -13 64 -15 514
-15 l512 0 2 1237 c1 681 4 1252 7 1270 2 18 8 56 12 83 3 28 8 59 10 70 23
120 22 555 -1 691 -3 16 -7 43 -9 59 -24 172 -78 385 -136 541 -23 60 -44 118
-47 129 -13 41 -142 293 -198 385 -181 299 -425 572 -690 771 -38 29 -87 65
-107 81 -20 15 -48 33 -62 39 -14 7 -26 16 -26 21 0 4 -4 8 -9 8 -5 0 -40 19
-77 42 -286 174 -710 325 -1023 363 -30 4 -61 8 -70 10 -67 13 -504 29 -514
19z m-194 -2935 c15 -6 29 -21 32 -33 2 -11 6 -120 9 -241 2 -121 6 -231 9
-245 3 -14 8 -39 10 -57 28 -191 141 -264 414 -267 45 -1 85 -5 89 -9 13 -13
9 -1208 -4 -1216 -14 -8 -410 -6 -502 3 -88 9 -137 16 -185 26 -22 5 -54 11
-72 15 -59 10 -217 67 -297 106 -188 94 -352 239 -472 417 -85 126 -151 284
-192 462 -41 174 -47 238 -47 538 l0 294 25 19 c14 11 34 26 45 34 29 23 113
52 175 61 91 14 195 9 286 -15 73 -20 177 -8 259 28 126 55 210 86 255 93 40
7 133 -1 163 -13z"/>
</g>
</svg>
